<?xml version="1.0" standalone="no"?>
<!DOCTYPE svg PUBLIC "-//W3C//DTD SVG 20010904//EN"
 "http://www.w3.org/TR/2001/REC-SVG-20010904/DTD/svg10.dtd">
<svg version="1.0" xmlns="http://www.w3.org/2000/svg"
 width="16.000000pt" height="16.000000pt" viewBox="0 0 16.000000 16.000000"
 preserveAspectRatio="xMidYMid meet">
<metadata>
Created by potrace 1.11, written by Peter Selinger 2001-2013
</metadata>
<g transform="translate(0.000000,16.000000) scale(0.003125,-0.003125)"
fill="#000000" stroke="none">
<path d="M1975 5107 c-170 -45 -321 -169 -384 -317 -18 -41 -26 -50 -39 -44
-44 19 -152 35 -209 30 -271 -19 -472 -232 -483 -511 -1 -27 -8 -33 -63 -59
-112 -53 -220 -184 -256 -311 -32 -112 -20 -259 28 -354 l20 -38 -45 -33 c-80
-57 -149 -166 -180 -284 -18 -69 -12 -208 13 -276 l20 -55 -58 -63 c-111 -119
-169 -287 -156 -453 10 -126 77 -277 159 -357 l37 -36 -58 -61 c-99 -106 -148
-241 -138 -380 15 -214 147 -385 352 -455 32 -11 69 -20 81 -20 21 0 23 -3 13
-26 -25 -66 -29 -182 -9 -269 28 -126 136 -268 250 -329 156 -84 361 -82 505
5 l29 18 34 -67 c19 -37 50 -87 70 -112 33 -42 46 -55 112 -114 86 -75 226
-126 365 -132 125 -4 202 12 314 68 143 72 256 199 317 358 l29 75 3 2054 2
2054 29 68 c51 122 118 196 219 242 37 17 67 21 137 22 82 0 96 -3 155 -32
129 -65 206 -168 224 -303 7 -52 42 -90 83 -90 15 0 47 13 72 29 185 118 406
51 500 -149 23 -49 25 -67 24 -155 -2 -126 4 -136 96 -164 97 -29 165 -86 210
-173 60 -119 50 -241 -32 -360 -58 -84 -49 -121 42 -168 75 -38 132 -94 167
-167 24 -50 28 -70 28 -143 0 -78 -3 -91 -39 -161 -48 -95 -44 -114 30 -169
115 -85 174 -195 181 -332 7 -159 -58 -285 -198 -379 -64 -44 -68 -49 -74 -88
-6 -38 23 -72 90 -105 66 -32 119 -89 155 -165 38 -81 37 -192 -2 -276 -66
-140 -228 -225 -369 -193 -98 22 -154 -66 -92 -147 104 -137 82 -339 -50 -458
-94 -84 -245 -108 -358 -55 -32 15 -81 50 -113 82 -51 52 -72 62 -115 56 -28
-3 -59 -45 -65 -85 -33 -216 -174 -371 -379 -415 -120 -26 -271 9 -372 86 -95
73 -198 -41 -113 -124 39 -38 145 -94 219 -117 30 -9 100 -18 155 -21 257 -10
479 123 597 358 l34 67 29 -18 c94 -57 238 -81 354 -60 193 36 351 189 402
389 11 44 14 167 5 205 -21 86 -25 78 52 98 155 40 288 158 346 307 24 61 27
74 33 160 10 137 -39 268 -139 375 l-57 61 37 36 c20 20 54 64 75 99 136 229
106 521 -73 712 l-58 62 20 50 c25 64 32 211 14 280 -31 118 -97 222 -180 284
l-45 34 20 38 c66 131 59 325 -17 464 -41 74 -138 166 -211 201 -60 28 -62 30
-62 67 -1 44 1 32 -17 107 -52 224 -248 387 -475 396 -68 2 -154 -10 -200 -30
-12 -5 -24 11 -54 70 -74 145 -220 257 -377 290 -271 57 -507 -79 -630 -364
l-33 -77 -5 -2065 c-4 -1593 -8 -2073 -18 -2100 -17 -51 -78 -149 -115 -188
-79 -82 -194 -133 -312 -138 -251 -11 -458 167 -489 421 -7 50 -44 85 -91 85
-27 0 -42 -10 -82 -51 -144 -150 -364 -154 -503 -8 -70 74 -106 191 -89 286
10 51 53 146 75 164 17 14 18 78 1 100 -23 30 -52 39 -103 31 -160 -26 -296
44 -366 185 -82 168 -17 362 151 452 108 57 119 116 33 174 -138 95 -207 201
-218 338 -14 163 48 286 205 409 46 36 47 66 5 150 -55 107 -55 222 -1 326 25
48 96 113 158 144 91 47 100 84 42 168 -97 142 -93 300 12 428 41 50 100 86
177 108 31 10 62 24 70 33 9 11 13 49 13 122 1 95 4 113 29 168 71 155 250
236 405 183 35 -11 80 -32 100 -46 74 -50 132 -21 150 77 23 130 101 234 220
291 59 28 76 32 156 32 100 1 153 -17 226 -75 57 -45 92 -48 129 -10 34 33 37
58 14 102 -18 36 -114 100 -192 129 -71 27 -225 35 -297 17z"/>
<path d="M3228 4336 c-66 -18 -153 -73 -206 -131 -50 -56 -102 -156 -109 -213
-3 -20 -6 -46 -8 -57 -3 -27 20 -72 46 -86 27 -14 82 -4 104 20 9 11 19 39 21
63 12 128 124 238 257 251 61 7 84 40 78 109 0 10 -11 26 -23 38 -25 23 -86
26 -160 6z"/>
<path d="M1928 4254 c-14 -7 -29 -21 -34 -31 -4 -10 -8 -79 -10 -153 -1 -74
-3 -141 -3 -147 -1 -7 -13 -19 -28 -27 -41 -21 -78 -56 -105 -101 l-25 -40
-219 0 c-121 1 -232 -3 -247 -8 -53 -17 -55 -34 -55 -376 l0 -313 -31 -15
c-71 -35 -126 -117 -137 -202 -12 -98 47 -205 140 -254 59 -31 165 -30 226 2
50 26 93 69 112 113 l13 28 100 -1 100 0 30 -47 c17 -26 52 -62 80 -80 l49
-33 1 -522 0 -522 -48 -28 c-26 -15 -51 -35 -54 -42 -3 -8 -9 -15 -14 -15 -5
0 -63 54 -129 120 l-121 120 14 48 c15 52 7 133 -17 180 -21 41 -71 89 -118
114 -58 31 -165 31 -223 1 -128 -68 -177 -221 -112 -350 55 -108 193 -164 301
-124 35 14 18 27 202 -159 118 -119 151 -158 166 -198 21 -56 68 -111 116
-136 18 -9 32 -20 33 -24 0 -4 1 -70 2 -147 2 -181 11 -199 99 -198 61 1 74
41 73 218 l0 130 37 22 c149 86 175 285 54 405 -21 20 -50 41 -65 47 l-27 12
1 524 0 524 49 32 c117 78 154 234 81 348 -31 49 -62 76 -115 100 -113 52
-252 7 -317 -101 l-28 -48 -96 0 -96 0 -31 50 c-20 32 -50 62 -81 81 l-49 31
-1 259 c0 142 3 260 7 260 4 1 83 2 176 3 l169 1 30 -48 c50 -82 154 -134 240
-122 123 18 208 99 226 217 16 99 -32 202 -119 254 l-46 28 0 142 c0 174 -9
200 -79 209 -12 2 -32 -3 -47 -11z m100 -527 c30 -27 30 -88 1 -116 -56 -52
-131 -21 -145 58 -4 24 28 70 56 79 32 11 59 5 88 -21z m-683 -852 c54 -53 13
-145 -64 -145 -29 0 -70 40 -75 74 -14 80 82 129 139 71z m673 10 c30 -21 43
-73 26 -105 -40 -81 -157 -53 -157 37 0 66 76 106 131 68z m-705 -1014 c90
-34 69 -161 -27 -161 -85 0 -112 118 -36 157 30 15 32 15 63 4z m684 -510 c25
-2 53 -45 53 -81 0 -62 -66 -103 -120 -75 -57 30 -58 120 -2 149 14 7 33 12
41 11 9 -2 21 -4 28 -4z"/>
<path d="M3655 3923 c-11 -3 -30 -15 -43 -26 -20 -18 -23 -30 -21 -77 7 -173
146 -341 324 -391 108 -30 168 -11 181 56 11 59 -25 93 -103 101 -109 10 -222
128 -236 244 -6 51 -16 69 -48 85 -15 8 -29 14 -31 14 -2 -1 -12 -3 -23 -6z"/>
<path d="M2930 3215 c-20 -21 -24 -35 -22 -77 7 -197 189 -385 392 -405 50 -5
60 -2 85 20 22 19 29 33 29 61 0 50 -34 82 -96 89 -80 10 -151 56 -202 133
-26 40 -32 58 -41 123 -10 77 -95 109 -145 56z"/>
<path d="M4125 3045 c-14 -13 -25 -32 -26 -42 -5 -137 -110 -255 -241 -270
-63 -8 -98 -37 -98 -83 0 -67 45 -96 130 -86 170 21 336 180 371 358 6 31 9
68 5 82 -16 65 -95 88 -141 41z"/>
<path d="M3245 2206 c-118 -30 -229 -116 -288 -224 -31 -57 -57 -166 -50 -205
6 -30 43 -68 69 -69 61 -5 92 25 100 95 9 75 58 152 130 203 38 27 59 34 114
41 60 7 94 40 93 89 -2 71 -63 96 -168 70z"/>
<path d="M3800 2034 c-34 -24 -40 -34 -40 -70 0 -50 27 -74 103 -90 37 -7 80
-22 95 -31 72 -46 128 -129 138 -206 7 -54 26 -82 62 -95 39 -13 89 8 103 45
16 39 -2 137 -37 210 -50 102 -181 212 -284 238 -66 16 -115 16 -140 -1z"/>
<path d="M3307 1360 c-38 -12 -56 -37 -57 -81 0 -48 35 -81 90 -85 116 -9 230
-121 245 -239 8 -62 50 -108 91 -101 33 6 74 33 75 49 17 151 -64 306 -209
398 -73 46 -184 74 -235 59z"/>
</g>
</svg>
